<?xml version="1.0" encoding="utf-8"?>
<!-- Generator: Adobe Illustrator 25.0.0, SVG Export Plug-In . SVG Version: 6.00 Build 0)  -->
<svg version="1.1" id="Слой_1" xmlns="http://www.w3.org/2000/svg" xmlns:xlink="http://www.w3.org/1999/xlink" x="0px" y="0px"
	 width="805px" height="805px" viewBox="0 0 805 805" style="enable-background:new 0 0 805 805;" xml:space="preserve">
<style type="text/css">
	.st0{fill:#FF5C1F;}
</style>
<path class="st0" d="M729,609.8L73,801.2c-19,5.5-39.7,1-54.1-12.5c-0.5-0.4-0.9-0.9-1.4-1.3C3.1,772.8-1.9,751.4,3.9,731.8
	l194-653.5c1.1-3.7,3.4-12,3.4-12c0-0.4,3.9-11,3.9-11c0,0,0,0,0,0c8.6-31.1,30.4-46.6,70.6-36.3c0,0,0,0,0,0l233.7,85.2
	c31.3,13.2,43.7,30.2,60,60l206.8,363.2C792.5,571.6,772.2,594.4,729,609.8C728.3,610.1,729.6,609.8,729,609.8
	C729,609.8,729,609.8,729,609.8z"/>
</svg>
