<?xml version="1.0" encoding="utf-8"?>
<!-- Generator: Adobe Illustrator 24.1.2, SVG Export Plug-In . SVG Version: 6.00 Build 0)  -->
<svg version="1.1" id="Слой_1" xmlns="http://www.w3.org/2000/svg" xmlns:xlink="http://www.w3.org/1999/xlink" x="0px" y="0px"
	 width="24px" height="24px" viewBox="0 0 24 24" style="enable-background:new 0 0 24 24;" xml:space="preserve">
<style type="text/css">
	.st0{fill:none;stroke:#FFFFFF;stroke-width:1.5;stroke-linecap:round;stroke-linejoin:round;}
</style>
<g id="Iconly_x2F_Light_x2F_Category">
	<g id="Category" transform="translate(2.999141, 3.000000)">
		<path id="Stroke-1" class="st0" d="M0,3.5C0,0.9,0,0,3.5,0S7,0.9,7,3.5S7,7,3.5,7S0,6.1,0,3.5z"/>
		<path id="Stroke-3" class="st0" d="M11,3.5C11,0.9,11,0,14.5,0S18,0.9,18,3.5S18,7,14.5,7S11,6.1,11,3.5z"/>
		<path id="Stroke-5" class="st0" d="M0,14.5C0,11.9,0,11,3.5,11S7,11.9,7,14.5S7,18,3.5,18S0,17.1,0,14.5z"/>
		<path id="Stroke-7" class="st0" d="M11,14.5c0-2.6,0-3.5,3.5-3.5s3.5,0.9,3.5,3.5s0,3.5-3.5,3.5S11,17.1,11,14.5z"/>
	</g>
</g>
</svg>
