<svg width="14" height="14" viewBox="0 0 14 14" fill="none" xmlns="http://www.w3.org/2000/svg">
    <path d="M10.4994 0.00291293L8.68393 0C6.64429 0 5.32619 1.35233 5.32619 3.44542V5.03399H3.5008C3.34306 5.03399 3.21533 5.16187 3.21533 5.3196V7.62126C3.21533 7.77899 3.34321 7.90672 3.5008 7.90672H5.32619V13.7145C5.32619 13.8723 5.45392 14 5.61166 14H7.99328C8.15101 14 8.27874 13.8721 8.27874 13.7145V7.90672H10.4131C10.5708 7.90672 10.6985 7.77899 10.6985 7.62126L10.6994 5.3196C10.6994 5.24386 10.6692 5.17133 10.6158 5.11773C10.5623 5.06414 10.4895 5.03399 10.4138 5.03399H8.27874V3.68734C8.27874 3.04008 8.43298 2.71151 9.27613 2.71151L10.4991 2.71107C10.6567 2.71107 10.7845 2.58319 10.7845 2.4256V0.288381C10.7845 0.130936 10.6569 0.00320423 10.4994 0.00291293Z" fill="white" />
</svg>
