<svg version="1.1" id="Слой_1" xmlns="http://www.w3.org/2000/svg" xmlns:xlink="http://www.w3.org/1999/xlink" x="0px" y="0px" width="18px" height="14px" viewBox="0 0 18 14" style="enable-background:new 0 0 18 14;" xml:space="preserve">

    <g>
        <path fill="#FFFFFF" d="M17.9,11.1c0,0,0-0.1-0.1-0.1c-0.3-0.6-0.9-1.3-1.8-2.1l0,0l0,0l0,0h0c-0.4-0.4-0.7-0.6-0.8-0.8
			c-0.2-0.2-0.2-0.5-0.1-0.8c0.1-0.2,0.4-0.6,0.8-1.2c0.3-0.3,0.5-0.6,0.6-0.8C17.6,3.9,18.1,3,18,2.6l-0.1-0.1
			c0-0.1-0.1-0.1-0.3-0.2c-0.2,0-0.4-0.1-0.6,0l-2.7,0c0,0-0.1,0-0.2,0c-0.1,0-0.1,0-0.1,0l0,0l0,0c0,0-0.1,0.1-0.1,0.1
			c0,0-0.1,0.1-0.1,0.2c-0.3,0.8-0.6,1.5-1,2.1c-0.2,0.4-0.4,0.7-0.6,1c-0.2,0.3-0.4,0.5-0.5,0.6c-0.1,0.1-0.2,0.2-0.4,0.3
			c-0.1,0.1-0.2,0.1-0.2,0.1c-0.1,0-0.1,0-0.2,0c-0.1-0.1-0.2-0.1-0.2-0.2c-0.1-0.1-0.1-0.2-0.1-0.4c0-0.1,0-0.3,0-0.4
			c0-0.1,0-0.3,0-0.4c0-0.2,0-0.3,0-0.4c0-0.2,0-0.5,0-0.8c0-0.3,0-0.5,0-0.7c0-0.2,0-0.3,0-0.5c0-0.2,0-0.3,0-0.4
			c0-0.1-0.1-0.2-0.1-0.3c0-0.1-0.1-0.2-0.2-0.2C10.2,2.1,10,2,9.9,2C9.6,1.9,9.2,1.9,8.7,1.9c-1.2,0-1.9,0.1-2.2,0.2
			C6.3,2.2,6.2,2.3,6.1,2.4C6,2.5,5.9,2.6,6,2.6C6.4,2.7,6.7,2.8,6.8,3l0.1,0.1C6.9,3.2,7,3.3,7,3.5C7,3.8,7.1,4,7.1,4.2
			c0,0.5,0,0.8,0,1.2C7.1,5.7,7,6,7,6.2c0,0.2-0.1,0.3-0.1,0.4C6.8,6.7,6.8,6.8,6.8,6.8c0,0,0,0,0,0c-0.1,0-0.2,0-0.3,0
			c-0.1,0-0.2,0-0.3-0.1C6,6.7,5.9,6.6,5.7,6.4C5.6,6.3,5.5,6,5.3,5.8C5.1,5.5,5,5.2,4.8,4.8L4.6,4.5C4.5,4.3,4.4,4.1,4.2,3.8
			c-0.2-0.3-0.3-0.7-0.4-1c0-0.1-0.1-0.2-0.2-0.3l0,0c0,0-0.1-0.1-0.1-0.1c-0.1,0-0.1,0-0.2-0.1l-2.6,0c-0.3,0-0.4,0.1-0.5,0.2
			l0,0.1c0,0,0,0.1,0,0.2C0,2.8,0,2.9,0.1,3c0.4,0.9,0.8,1.7,1.2,2.5c0.4,0.8,0.8,1.5,1.1,2c0.3,0.5,0.7,1,1,1.4
			C3.8,9.4,4,9.6,4.1,9.8C4.2,9.9,4.3,10,4.3,10l0.2,0.2c0.1,0.1,0.4,0.3,0.7,0.5c0.3,0.2,0.6,0.4,1,0.6c0.4,0.2,0.8,0.4,1.2,0.5
			c0.5,0.1,0.9,0.2,1.4,0.2h1.1c0.2,0,0.4-0.1,0.5-0.2l0,0c0,0,0-0.1,0.1-0.2c0-0.1,0-0.2,0-0.3c0-0.3,0-0.5,0.1-0.7
			c0-0.2,0.1-0.4,0.2-0.5c0.1-0.1,0.1-0.2,0.2-0.3c0.1-0.1,0.1-0.1,0.2-0.1c0,0,0.1,0,0.1,0c0.1-0.1,0.3,0,0.5,0.1
			c0.2,0.1,0.4,0.3,0.6,0.5c0.2,0.2,0.4,0.5,0.6,0.7c0.2,0.3,0.5,0.5,0.7,0.6l0.2,0.1c0.1,0.1,0.3,0.1,0.5,0.2
			c0.2,0.1,0.4,0.1,0.5,0l2.4,0c0.2,0,0.4,0,0.6-0.1c0.1-0.1,0.2-0.2,0.2-0.3c0-0.1,0-0.2,0-0.3C17.9,11.3,17.9,11.2,17.9,11.1z" />
    </g>
</svg>
