<svg version="1.1" id="Слой_1"
	xmlns="http://www.w3.org/2000/svg"
	xmlns:xlink="http://www.w3.org/1999/xlink" x="0px" y="0px" width="740px" height="482.25px" viewBox="0 0 740 482.25" enable-background="new 0 0 740 482.25" xml:space="preserve">
	<path fill="#ff5c1e" d="M438.86,0c-7.68,0-12.57,5.97-14.64,13.2c-0.09,0.36-0.18,0.71-0.28,1.07c-0.07,0.29-0.15,0.58-0.21,0.87
	l-0.03-0.04c-6.84,23.19-28.3,40.16-53.69,40.16c-25.39,0-46.84-16.95-53.69-40.14l-0.01,0.03c-0.06-0.23-0.12-0.46-0.18-0.7
	c-0.09-0.32-0.18-0.64-0.27-0.97C313.73,6.4,308.85,0,301.09,0H0v482.25h740V0H438.86z"/>
</svg>
